<?xml version="1.0" standalone="no"?>
<!DOCTYPE svg PUBLIC "-//W3C//DTD SVG 20010904//EN"
 "http://www.w3.org/TR/2001/REC-SVG-20010904/DTD/svg10.dtd">
<svg version="1.0" xmlns="http://www.w3.org/2000/svg"
 width="380.000000pt" height="380.000000pt" viewBox="0 0 380.000000 380.000000"
 preserveAspectRatio="xMidYMid meet">
<metadata>
Created by potrace 1.14, written by Peter Selinger 2001-2017
</metadata>
<g transform="translate(0.000000,380.000000) scale(0.100000,-0.100000)"
fill="#000000" stroke="none">
<path d="M1941 3351 l-43 -39 18 -25 c31 -41 82 -70 132 -75 44 -4 51 -1 79
27 40 40 88 42 127 6 51 -47 28 -128 -42 -150 -24 -7 -82 11 -82 25 0 4 -28
11 -62 14 -81 9 -134 33 -181 82 l-38 39 -25 -30 c-74 -91 -109 -222 -85 -323
12 -46 15 -51 47 -57 66 -12 93 -100 46 -148 -10 -10 -34 -20 -53 -23 -29 -5
-41 -1 -65 19 -26 23 -29 31 -30 94 -1 37 -7 88 -14 113 -7 27 -10 73 -6 115
7 88 62 204 135 287 28 31 51 60 51 64 0 13 -183 -5 -265 -26 -44 -11 -120
-30 -170 -40 -49 -11 -122 -30 -162 -41 l-72 -22 -11 -51 c-25 -116 -34 -275
-22 -387 14 -120 19 -139 36 -139 20 0 55 -44 62 -76 9 -47 -35 -94 -87 -94
-69 0 -106 62 -75 127 14 29 15 46 6 116 -6 45 -13 107 -16 138 l-5 57 -44
-24 c-24 -14 -66 -27 -94 -31 -30 -3 -57 -13 -67 -24 -26 -28 -89 -25 -119 6
-56 55 -16 145 64 145 31 0 44 -6 64 -30 30 -36 55 -38 114 -9 63 31 91 72
103 155 5 38 10 74 10 81 0 25 -272 -104 -393 -186 -243 -165 -382 -361 -434
-611 -13 -63 -22 -82 -59 -125 -111 -126 -122 -331 -29 -510 63 -122 242 -331
347 -406 l27 -20 6 38 c25 144 76 267 145 346 40 45 41 47 26 75 -22 43 -89
99 -134 113 -46 13 -92 6 -92 -15 0 -23 -50 -56 -84 -56 -83 0 -113 92 -50
154 19 20 74 21 100 1 11 -9 42 -15 79 -15 93 -1 157 -37 225 -129 l26 -33 59
30 c33 16 86 38 117 47 l57 18 -44 61 c-47 66 -95 192 -95 249 0 24 -9 43 -30
65 -40 42 -40 83 -1 123 48 48 111 36 137 -26 16 -39 11 -59 -23 -97 -24 -25
-24 -28 -13 -85 20 -97 48 -157 98 -212 l47 -53 225 -1 c199 -1 229 1 263 18
l39 18 -44 27 c-45 28 -83 71 -112 127 -10 19 -31 39 -50 47 -41 17 -56 42
-56 90 0 69 94 103 145 51 27 -26 33 -72 15 -106 -26 -47 82 -169 149 -169 26
0 57 82 70 185 5 42 16 87 25 100 34 52 113 71 221 55 l70 -10 28 32 c27 32
36 68 17 68 -5 0 -17 14 -26 31 -47 93 73 178 140 98 33 -39 33 -79 0 -118
-41 -49 -76 -124 -61 -133 6 -4 19 0 28 8 25 22 84 18 115 -9 33 -29 36 -76 7
-115 -38 -51 -134 -36 -149 22 -5 20 -17 27 -77 42 -40 10 -106 18 -148 18
-89 1 -119 -16 -119 -68 0 -53 -36 -182 -63 -228 -14 -25 -43 -60 -63 -78 -70
-61 -85 -64 -359 -71 -222 -5 -258 -9 -320 -29 -243 -78 -359 -218 -394 -474
-12 -83 -20 -74 134 -151 197 -98 381 -138 640 -139 176 -1 326 13 477 44 l87
17 63 -61 c125 -121 208 -235 319 -439 35 -66 75 -130 89 -144 37 -38 86 -55
131 -48 37 6 39 8 39 45 0 104 -59 311 -114 403 l-34 56 77 6 c243 21 508 148
616 295 40 55 75 136 75 175 0 20 7 26 43 35 233 60 288 115 304 303 3 37 3
67 0 67 -3 0 -41 -24 -84 -54 -143 -98 -315 -174 -491 -215 -67 -16 -87 -25
-108 -50 -43 -51 -119 -41 -144 18 -15 36 -7 74 20 101 27 27 91 27 115 0 14
-16 26 -19 54 -14 51 8 194 51 273 82 57 22 67 30 72 55 11 52 5 131 -12 187
-17 52 -20 55 -57 61 -92 15 -104 132 -16 168 60 25 132 -38 116 -102 -4 -16
1 -47 15 -84 12 -32 24 -91 27 -130 3 -40 9 -73 13 -73 10 0 147 91 184 123
l30 24 -18 109 c-10 59 -28 142 -41 184 -13 41 -35 115 -50 163 -25 86 -27 89
-126 191 -96 100 -102 109 -138 204 -47 124 -105 196 -251 314 -57 45 -197
138 -209 138 -5 0 -16 -30 -25 -67 -23 -91 -67 -180 -116 -235 -22 -25 -40
-51 -40 -56 0 -6 13 -38 29 -71 39 -84 56 -176 43 -238 -6 -26 -8 -75 -5 -108
5 -55 3 -62 -21 -84 -38 -35 -91 -34 -122 3 -44 51 -22 127 41 144 24 7 31 16
39 47 12 50 -4 136 -39 209 l-27 57 -32 -19 c-55 -33 -157 -63 -231 -69 -58
-5 -76 -11 -103 -34 -44 -39 -84 -38 -124 1 -26 27 -30 36 -25 67 9 52 38 78
88 78 33 0 46 -6 65 -29 l25 -28 71 12 c232 40 357 149 414 365 26 97 25 99
-73 133 -170 60 -297 82 -482 82 l-117 0 -43 -39z m1070 -896 c52 -27 62 -101
18 -141 -12 -11 -19 -30 -19 -53 0 -65 -28 -170 -62 -233 -68 -129 -193 -231
-364 -298 -52 -20 -97 -39 -100 -42 -3 -3 8 -28 24 -54 16 -27 35 -66 42 -86
6 -21 16 -38 21 -38 6 0 21 -11 34 -25 54 -53 16 -145 -60 -145 -69 0 -111 82
-70 136 8 10 15 25 15 32 0 22 -52 120 -76 143 -23 22 -26 22 -126 10 -242
-29 -473 -88 -575 -147 -37 -22 -43 -29 -43 -59 0 -47 -8 -64 -41 -80 -42 -22
-67 -18 -100 14 -54 55 -24 139 51 144 19 1 71 21 115 44 87 44 202 84 305
103 36 7 66 14 68 15 1 1 -11 31 -27 65 -17 35 -33 84 -37 109 -3 25 -15 55
-25 66 -43 48 -39 118 10 144 89 48 177 -64 106 -135 -16 -16 -25 -36 -25 -57
0 -40 39 -125 71 -154 l24 -22 140 19 c85 11 167 28 208 44 241 91 370 212
412 387 20 86 19 125 -3 141 -59 41 -52 132 12 158 31 13 44 12 77 -5z"/>
</g>
</svg>
